<?xml version="1.0" encoding="utf-8"?>
<!-- Svg Vector Icons : http://www.onlinewebfonts.com/icon -->
<!DOCTYPE svg PUBLIC "-//W3C//DTD SVG 1.1//EN" "http://www.w3.org/Graphics/SVG/1.1/DTD/svg11.dtd">
<svg version="1.1" xmlns="http://www.w3.org/2000/svg" xmlns:xlink="http://www.w3.org/1999/xlink" x="0px" y="0px" viewBox="0 0 256 256" enable-background="new 0 0 256 256" xml:space="preserve">
<metadata> Svg Vector Icons : http://www.onlinewebfonts.com/icon </metadata>
<g><g><g><path fill="#000000" d="M116.6,10.3C93.6,12.6,71.5,21.7,53.8,36c-6,4.8-15.7,14.8-20.1,20.7c-12.4,16.5-20,35.3-23.1,56.8c-0.9,6.3-0.7,24.1,0.3,30.7c3.2,21,10.6,38.7,23,55.3c4.2,5.7,16.8,18.3,22.5,22.5C76.6,237,99,245,124,245.9c27,1,53.2-7.3,75.4-23.9c5.6-4.2,15.7-14,20.3-19.7c17.1-21.2,26.3-47.5,26.4-74.6c0-26.5-9.6-53.5-26.5-74.3c-4.5-5.6-14.7-15.4-20.2-19.5c-16.2-12.2-34.5-19.8-54.8-22.9C138.7,10.1,122.5,9.7,116.6,10.3z M138,17.7c29.6,2.7,57.6,17.8,76.3,41c12.6,15.6,20.6,34.7,23.4,55.4c0.4,2.4,0.6,8.5,0.6,13.8c0,5.3-0.3,11.4-0.6,13.8c-3.8,27.9-17.4,53-38.1,70.5c-16.3,13.8-35.6,22.3-57.7,25.6c-5.4,0.8-22.7,0.8-28.1,0c-21.2-3.1-39.2-10.8-55.4-23.6c-12-9.5-24-24.8-30.7-39C7.8,132.7,16.5,82.9,49.7,49.7c19-19,42-29.6,69.9-32.3C123.4,17.2,133.1,17.3,138,17.7z"/><path fill="#000000" d="M101,57.6c-0.2,0.2-0.3,10-0.3,21.7v21.4l-21.5,0.1L57.5,101l-0.1,2.2l-0.1,2.2h21.7h21.7V128v22.6H78.9H57.2l0.1,2.2l0.1,2.2l21.5,0.1l21.6,0.1l0.1,21.6l0.1,21.5h2.1h2.1l0.1-21.6l0.1-21.5h22.6h22.6v21.7v21.7h2.1c1.3,0,2.1-0.2,2.1-0.6c0-0.3,0-10.1,0-21.7v-21.1h21.6c23.8,0,22.3,0.2,21.8-3l-0.3-1.7l-21.5-0.1l-21.5-0.1l-0.1-22.5l-0.1-22.5h21.7H198V103v-2.3h-21.6h-21.7l0-21.6l0-21.5l-2.2-0.1l-2.1-0.1V79v21.7h-22.6h-22.6l-0.1-21.6L105,57.6l-1.8-0.1C102.1,57.4,101.2,57.4,101,57.6z M150.5,128v22.6h-22.6h-22.6V128v-22.6h22.6h22.6V128z"/><path fill="#000000" d="M115.3,115.4c-0.7,0.7-1.2,1.4-1.2,1.5c0,0.1,2.4,2.7,5.4,5.6l5.4,5.4l-5.5,5.5l-5.5,5.5l1.5,1.5l1.5,1.5l5.5-5.5l5.5-5.5l5.4,5.4l5.4,5.4l1.5-1.5l1.5-1.5l-5.4-5.4l-5.4-5.4l5.4-5.4l5.4-5.4l-1.5-1.5l-1.5-1.5l-5.4,5.4l-5.4,5.4l-5.4-5.4c-3-3-5.5-5.4-5.7-5.4C116.6,114.1,116,114.7,115.3,115.4z"/><path fill="#000000" d="M174.4,113.8c-11,3-14.7,16.5-6.6,24.5c3,3,4.9,3.7,10.2,3.7c3.8,0,4.9-0.2,6.5-1c2.6-1.4,5.1-4,6.6-6.8c1.1-2.1,1.2-3,1.2-6.3c0-3.4-0.2-4.2-1.3-6.3c-0.7-1.3-2-3.2-3-4.1C184.7,114.3,178.8,112.6,174.4,113.8z"/><path fill="#000000" d="M123.3,164.2c-6.2,2.3-9.8,7.4-9.8,13.9c0,5.7,2.8,10.2,8.1,12.9c2.1,1.1,3,1.3,6.3,1.3c3.4,0,4.2-0.2,6.3-1.2c2.8-1.5,5.4-4,6.8-6.6c0.8-1.5,1-2.6,1-6.5c0-5.2-0.7-7.2-3.7-10.2C134.4,164.1,128,162.5,123.3,164.2z"/><path fill="#000000" d="M65.8,165.8l-1.3,1.4l5.4,5.4l5.4,5.4l-5.4,5.4l-5.4,5.4l1.6,1.6l1.6,1.6l5.4-5.4l5.4-5.4l5.4,5.4l5.4,5.4l1.6-1.6l1.6-1.6l-5.4-5.4l-5.4-5.4l5.4-5.4l5.4-5.4l-1.3-1.4c-0.7-0.7-1.6-1.4-1.8-1.4c-0.2,0-2.9,2.4-5.8,5.3l-5.3,5.3l-5.2-5.2c-2.9-2.9-5.4-5.2-5.6-5.3C67.3,164.5,66.5,165,65.8,165.8z"/></g></g></g>
</svg>